<svg width="21" height="21" viewBox="0 0 21 21" fill="none" xmlns="http://www.w3.org/2000/svg">
<path d="M10.8415 20.9478C16.4408 20.9478 20.9799 16.4706 20.9799 10.9478C20.9799 5.42491 16.4408 0.947754 10.8415 0.947754C5.24223 0.947754 0.703125 5.42491 0.703125 10.9478C0.703125 16.4706 5.24223 20.9478 10.8415 20.9478Z" fill="#8BD399"/>
<path opacity="0.1" d="M18.6245 4.5575C16.8708 3.13457 14.6273 2.27929 12.1815 2.27929C6.58229 2.27929 2.04071 6.75889 2.04071 12.2817C2.04071 14.6941 2.90782 16.907 4.35036 18.6367C2.12232 16.8035 0.703125 14.0459 0.703125 10.9585C0.703125 5.43566 5.24082 0.959961 10.84 0.959961C13.9702 0.959961 16.7659 2.35979 18.6245 4.5575Z" fill="black"/>
<path d="M8.42885 14.862L6.1869 12.5093C5.59975 11.8931 5.63006 10.9242 6.25461 10.3451C6.87916 9.7652 7.86191 9.79631 8.44854 10.4121L9.51876 11.5347L14.0679 6.40626C14.6317 5.76981 15.6125 5.70526 16.2583 6.26224C16.9036 6.81921 16.9687 7.78631 16.4043 8.42276L10.7279 14.8216C10.1232 15.5026 9.05596 15.5204 8.42885 14.862Z" fill="white"/>
</svg>
