<svg width="20" height="16" viewBox="0 0 20 16" fill="none" xmlns="http://www.w3.org/2000/svg">
<path d="M18.75 15.5H1.25001C0.559623 15.5 0 14.9404 0 14.25C0 13.5597 0.559623 13 1.25001 13H18.75C19.4404 13 20 13.5597 20 14.25C20 14.9404 19.4404 15.5 18.75 15.5Z" fill="#373434"/>
<path d="M18.75 9.24998H1.25001C0.559623 9.24998 0 8.69036 0 8.00002C0 7.30967 0.559623 6.75001 1.25001 6.75001H18.75C19.4404 6.75001 20 7.30963 20 8.00002C20 8.6904 19.4404 9.24998 18.75 9.24998Z" fill="#373434"/>
<path d="M18.75 2.99999H1.25001C0.559623 2.99999 0 2.44036 0 1.74998C0 1.05959 0.559623 0.499969 1.25001 0.499969H18.75C19.4404 0.499969 20 1.05959 20 1.74998C20 2.44036 19.4404 2.99999 18.75 2.99999Z" fill="#373434"/>
</svg>
