<svg width="18" height="18" viewBox="0 0 18 18" fill="none" xmlns="http://www.w3.org/2000/svg">
<path fill-rule="evenodd" clip-rule="evenodd" d="M9.00521 0.664062C4.40271 0.664062 0.671875 4.3949 0.671875 8.9974C0.671875 13.5999 4.40271 17.3307 9.00521 17.3307C13.6077 17.3307 17.3385 13.5999 17.3385 8.9974C17.3385 4.3949 13.6077 0.664062 9.00521 0.664062ZM6.08854 6.91406C6.08854 6.53104 6.16398 6.15177 6.31056 5.7979C6.45714 5.44404 6.67198 5.1225 6.94281 4.85167C7.21365 4.58083 7.53518 4.36599 7.88905 4.21941C8.24291 4.07284 8.62219 3.9974 9.00521 3.9974C9.38823 3.9974 9.7675 4.07284 10.1214 4.21941C10.4752 4.36599 10.7968 4.58083 11.0676 4.85167C11.3384 5.1225 11.5533 5.44404 11.6999 5.7979C11.8464 6.15177 11.9219 6.53104 11.9219 6.91406C11.9219 7.68761 11.6146 8.42948 11.0676 8.97646C10.5206 9.52344 9.77876 9.83073 9.00521 9.83073C8.23166 9.83073 7.48979 9.52344 6.94281 8.97646C6.39583 8.42948 6.08854 7.68761 6.08854 6.91406ZM14.2202 13.1507C13.5962 13.9352 12.8031 14.5686 11.9001 15.0038C10.9972 15.439 10.0076 15.6647 9.00521 15.6641C8.00283 15.6647 7.01325 15.439 6.11027 15.0038C5.20729 14.5686 4.41422 13.9352 3.79021 13.1507C5.14104 12.1816 6.98438 11.4974 9.00521 11.4974C11.026 11.4974 12.8694 12.1816 14.2202 13.1507Z" fill="#343735"/>
</svg>
