<svg width="18" height="18" viewBox="0 0 18 18" fill="none" xmlns="http://www.w3.org/2000/svg">
<path d="M16.2866 8.99909L17.2066 7.40909C17.3172 7.21779 17.3472 6.99041 17.2902 6.77695C17.2331 6.56348 17.0937 6.38141 16.9024 6.27076L15.3107 5.35076V3.51743C15.3107 3.29641 15.223 3.08445 15.0667 2.92817C14.9104 2.77189 14.6984 2.68409 14.4774 2.68409H12.6449L11.7258 1.09326C11.6153 0.901867 11.4333 0.762183 11.2199 0.704925C11.1142 0.676593 11.0039 0.66937 10.8954 0.683669C10.7869 0.697967 10.6822 0.733507 10.5874 0.788258L8.99575 1.70826L7.40409 0.787425C7.21269 0.676923 6.98523 0.646978 6.77175 0.704176C6.55828 0.761374 6.37626 0.901031 6.26575 1.09243L5.34575 2.68409H3.51325C3.29224 2.68409 3.08028 2.77189 2.924 2.92817C2.76772 3.08445 2.67992 3.29641 2.67992 3.51743V5.34993L1.08825 6.26993C0.993443 6.32471 0.910361 6.39765 0.843756 6.48457C0.777151 6.57148 0.728329 6.67068 0.700081 6.77647C0.671833 6.88227 0.664712 6.99259 0.679126 7.10114C0.693541 7.20969 0.729207 7.31433 0.784086 7.40909L1.70409 8.99909L0.784086 10.5891C0.674077 10.7806 0.64423 11.0078 0.701052 11.2212C0.757874 11.4346 0.896757 11.6168 1.08742 11.7283L2.67909 12.6483V14.4808C2.67909 14.7018 2.76688 14.9137 2.92316 15.07C3.07944 15.2263 3.29141 15.3141 3.51242 15.3141H5.34575L6.26575 16.9058C6.33953 17.0319 6.44487 17.1366 6.5714 17.2097C6.69794 17.2827 6.84131 17.3216 6.98742 17.3224C7.13242 17.3224 7.27659 17.2841 7.40492 17.2099L8.99492 16.2899L10.5866 17.2099C10.7779 17.3205 11.0053 17.3506 11.2187 17.2935C11.4322 17.2365 11.6143 17.097 11.7249 16.9058L12.6441 15.3141H14.4766C14.6976 15.3141 14.9096 15.2263 15.0658 15.07C15.2221 14.9137 15.3099 14.7018 15.3099 14.4808V12.6483L16.9016 11.7283C16.9964 11.6735 17.0795 11.6005 17.1461 11.5136C17.2127 11.4267 17.2615 11.3275 17.2898 11.2217C17.318 11.1159 17.3251 11.0056 17.3107 10.897C17.2963 10.7885 17.2606 10.6838 17.2057 10.5891L16.2866 8.99909ZM6.91158 4.82409C7.24322 4.8242 7.56122 4.95605 7.79564 5.19063C8.03006 5.4252 8.1617 5.74329 8.16159 6.07493C8.16147 6.40656 8.02963 6.72456 7.79505 6.95898C7.56048 7.1934 7.24238 7.32504 6.91075 7.32493C6.57912 7.32481 6.26112 7.19297 6.0267 6.95839C5.79228 6.72382 5.66064 6.40572 5.66075 6.07409C5.66086 5.74246 5.79271 5.42446 6.02729 5.19004C6.26186 4.95562 6.57995 4.82398 6.91158 4.82409ZM7.16159 12.8241L5.82825 11.8249L10.8283 5.15826L12.1616 6.15743L7.16159 12.8241ZM11.0783 13.1574C10.914 13.1574 10.7515 13.125 10.5998 13.0621C10.4481 12.9992 10.3103 12.907 10.1942 12.7909C10.0781 12.6747 9.98606 12.5369 9.92327 12.3851C9.86049 12.2334 9.8282 12.0708 9.82825 11.9066C9.82831 11.7424 9.8607 11.5798 9.92359 11.4281C9.98648 11.2764 10.0786 11.1386 10.1948 11.0225C10.3109 10.9065 10.4488 10.8144 10.6005 10.7516C10.7523 10.6888 10.9149 10.6565 11.0791 10.6566C11.4107 10.6567 11.7287 10.7885 11.9631 11.0231C12.1976 11.2577 12.3292 11.5758 12.3291 11.9074C12.329 12.2391 12.1971 12.5571 11.9626 12.7915C11.728 13.0259 11.4099 13.1575 11.0783 13.1574Z" fill="#343735"/>
</svg>
