<svg width="16" height="16" viewBox="0 0 16 16" fill="none" xmlns="http://www.w3.org/2000/svg">
<path d="M1.33203 11.9987C1.33203 10.972 1.33203 10.4587 1.56336 10.0814C1.6927 9.87003 1.87003 9.6927 2.08136 9.56337C2.45803 9.33203 2.97203 9.33203 3.9987 9.33203C5.02536 9.33203 5.5387 9.33203 5.91603 9.56337C6.12737 9.6927 6.3047 9.87003 6.43403 10.0814C6.66536 10.458 6.66536 10.972 6.66536 11.9987C6.66536 13.0254 6.66536 13.5387 6.43403 13.9167C6.3047 14.1274 6.12737 14.3047 5.91603 14.434C5.53937 14.6654 5.02536 14.6654 3.9987 14.6654C2.97203 14.6654 2.4587 14.6654 2.08136 14.434C1.87026 14.3049 1.69275 14.1276 1.56336 13.9167C1.33203 13.5387 1.33203 13.0254 1.33203 11.9987ZM9.33203 11.9987C9.33203 10.972 9.33203 10.4587 9.56337 10.0814C9.6927 9.87003 9.87003 9.6927 10.0814 9.56337C10.458 9.33203 10.972 9.33203 11.9987 9.33203C13.0254 9.33203 13.5387 9.33203 13.9167 9.56337C14.1274 9.6927 14.3047 9.87003 14.434 10.0814C14.6654 10.458 14.6654 10.972 14.6654 11.9987C14.6654 13.0254 14.6654 13.5387 14.434 13.9167C14.3046 14.1274 14.1274 14.3046 13.9167 14.434C13.5387 14.6654 13.0254 14.6654 11.9987 14.6654C10.972 14.6654 10.4587 14.6654 10.0814 14.434C9.87026 14.3049 9.69275 14.1276 9.56337 13.9167C9.33203 13.5387 9.33203 13.0254 9.33203 11.9987ZM1.33203 3.9987C1.33203 2.97203 1.33203 2.4587 1.56336 2.08136C1.6927 1.87003 1.87003 1.6927 2.08136 1.56336C2.45803 1.33203 2.97203 1.33203 3.9987 1.33203C5.02536 1.33203 5.5387 1.33203 5.91603 1.56336C6.12737 1.6927 6.3047 1.87003 6.43403 2.08136C6.66536 2.45803 6.66536 2.97203 6.66536 3.9987C6.66536 5.02536 6.66536 5.5387 6.43403 5.91603C6.3047 6.12737 6.12737 6.3047 5.91603 6.43403C5.53937 6.66536 5.02536 6.66536 3.9987 6.66536C2.97203 6.66536 2.4587 6.66536 2.08136 6.43403C1.87019 6.30473 1.69267 6.12721 1.56336 5.91603C1.33203 5.53937 1.33203 5.02536 1.33203 3.9987ZM9.33203 3.9987C9.33203 2.97203 9.33203 2.4587 9.56337 2.08136C9.6927 1.87003 9.87003 1.6927 10.0814 1.56336C10.458 1.33203 10.972 1.33203 11.9987 1.33203C13.0254 1.33203 13.5387 1.33203 13.9167 1.56336C14.1274 1.6927 14.3047 1.87003 14.434 2.08136C14.6654 2.45803 14.6654 2.97203 14.6654 3.9987C14.6654 5.02536 14.6654 5.5387 14.434 5.91603C14.3047 6.12737 14.1274 6.3047 13.9167 6.43403C13.5387 6.66536 13.0254 6.66536 11.9987 6.66536C10.972 6.66536 10.4587 6.66536 10.0814 6.43403C9.87019 6.30473 9.69267 6.12721 9.56337 5.91603C9.33203 5.53937 9.33203 5.02536 9.33203 3.9987Z" stroke="#373434" stroke-width="1.2" stroke-linecap="round" stroke-linejoin="round"/>
</svg>
