<svg width="17" height="16" viewBox="0 0 17 16" fill="none" xmlns="http://www.w3.org/2000/svg">
<path d="M6.20929 0.00010281C3.19437 0.00010281 0.875977 2.41111 0.875977 5.33341V5.33473C0.880421 7.53223 1.99867 9.36014 3.46459 11.0065C4.93041 12.6529 6.76804 14.1679 8.40465 15.8046C8.52965 15.9296 8.69916 15.9998 8.87598 15.9998C9.05279 15.9998 9.22229 15.9295 9.3473 15.8046C10.9826 14.1694 12.8223 12.6677 14.29 11.0273C15.7577 9.38693 16.876 7.55552 16.876 5.33331C16.876 2.41101 14.5576 0 11.5427 0H11.5413C11.209 0.000694433 10.7421 0.00277773 10.2119 0.214861C9.82032 0.371527 9.3517 0.776601 8.87859 1.18485C8.40325 0.776512 7.93233 0.371518 7.54012 0.214861C7.0093 0.00284441 6.54249 0.000142222 6.20937 0L6.20929 0.00010281ZM6.20929 1.33343C6.54283 1.33357 6.74164 1.33197 7.04519 1.45322C7.3488 1.57447 7.77915 1.84524 8.40853 2.47274C8.53374 2.59795 8.70367 2.66815 8.88081 2.66794C9.05789 2.66766 9.22762 2.59696 9.35254 2.4714C9.97782 1.84433 10.4058 1.57411 10.708 1.45322C11.0097 1.33253 11.2093 1.33413 11.5426 1.33343C13.861 1.33343 15.5426 3.101 15.5426 5.33341C15.5426 6.03745 15.3986 6.69723 15.1467 7.3334H14.5673L13.4306 5.63028C13.2992 5.43236 13.0724 5.31924 12.8352 5.33348C12.5981 5.34772 12.3864 5.48709 12.2796 5.69931L10.9658 8.33201L9.49837 4.43496C9.44796 4.29864 9.35441 4.18254 9.23199 4.10426C9.10956 4.026 8.96485 3.98989 8.81998 4.00142C8.69935 4.0119 8.58394 4.05496 8.48595 4.12607C8.38804 4.19718 8.3113 4.29364 8.26394 4.40502L6.777 7.87505L5.44888 5.65497C5.33103 5.45872 5.12076 5.33664 4.89194 5.33163C4.66305 5.32663 4.44764 5.43933 4.32131 5.63024L3.18459 7.33336H2.61688C2.35896 6.69384 2.2109 6.03337 2.2093 5.33337V5.33205C2.21 3.10024 3.89131 1.33331 6.20929 1.33331V1.33343ZM8.83434 6.45181L10.2523 10.2317C10.3136 10.3944 10.4359 10.5267 10.5932 10.6005C10.7507 10.6743 10.9306 10.6837 11.0948 10.6267C11.259 10.5698 11.3945 10.4509 11.4723 10.2955L12.958 7.32291L13.652 8.3711C13.7763 8.55645 13.9849 8.66735 14.208 8.66666H14.4398C14.1144 9.1613 13.7335 9.64957 13.2952 10.1393C12.0615 11.5182 10.4289 12.905 8.87727 14.4063C7.32638 12.9032 5.69471 11.506 4.46058 10.1199C4.02954 9.63582 3.65392 9.1538 3.3317 8.6668H3.54393C3.76517 8.66576 3.9715 8.55506 4.09468 8.37124L4.84856 7.24494L6.30433 9.67586C6.38856 9.81767 6.52232 9.92322 6.67981 9.97211C6.83731 10.0211 7.00738 10.0099 7.1571 9.94072C7.30683 9.87155 7.42564 9.7494 7.49051 9.59773L8.83434 6.45181Z" fill="#373434"/>
</svg>
