<svg width="16" height="17" viewBox="0 0 16 17" fill="none" xmlns="http://www.w3.org/2000/svg">
<g clip-path="url(#clip0_6017_3946)">
<path fill-rule="evenodd" clip-rule="evenodd" d="M10.7419 4.03541C10.9637 4.33376 10.9026 4.75476 10.6054 4.97704L7.91164 6.9862C7.61381 7.20673 7.19283 7.14561 6.97054 6.84848C6.74948 6.55186 6.81112 6.12967 7.10774 5.90858L9.8015 3.89942C10.0986 3.67716 10.5208 3.73877 10.7419 4.03541Z" fill="#373434"/>
<path fill-rule="evenodd" clip-rule="evenodd" d="M14.9772 2.96769C13.4241 0.884611 10.4763 0.455065 8.39276 2.00938L1.9282 6.83029C-0.155402 8.38458 -0.583758 11.3329 0.969886 13.4147C2.52297 15.4978 5.47075 15.9273 7.55429 14.373L10.7849 11.9631L10.7866 11.9624L14.019 9.55182C16.1026 7.99753 16.5308 5.04948 14.9772 2.96769ZM9.98261 10.8851L13.215 8.4745C14.7031 7.3642 15.0091 5.25809 13.8995 3.77164C12.7905 2.28406 10.6849 1.97681 9.19668 3.08707L5.96433 5.49768C5.60508 5.76465 5.37681 6.27523 5.41642 7.0068C5.45397 7.73321 5.75987 8.59653 6.35733 9.39667C6.95426 10.198 7.69554 10.737 8.37981 10.98C9.07013 11.2256 9.62285 11.1534 9.98088 10.8859C9.98209 10.8864 9.98261 10.8851 9.98261 10.8851ZM8.08624 12.2999C8.03352 12.2829 7.98132 12.2648 7.92912 12.2466C6.96091 11.9028 6.01359 11.1851 5.27974 10.2005C4.54588 9.21591 4.12862 8.10319 4.07392 7.07786C4.07072 7.02218 4.06874 6.96702 4.06795 6.91238L2.73202 7.9081C1.24391 9.0184 0.937856 11.1245 2.04745 12.611C3.15651 14.0985 5.2621 14.4058 6.7503 13.2955L8.08624 12.2999Z" fill="#373434"/>
</g>
<defs>
<clipPath id="clip0_6017_3946">
<rect width="16" height="16" fill="white" transform="translate(0 0.5)"/>
</clipPath>
</defs>
</svg>
