<svg width="16" height="17" viewBox="0 0 16 17" fill="none" xmlns="http://www.w3.org/2000/svg">
<path d="M11.7143 0.5C10.0851 0.5 8.72686 0.938282 8 1.61599C7.27314 0.938282 5.91486 0.5 4.28571 0.5C1.84228 0.5 0 1.48286 0 2.78571V14.3177C0.00147139 14.7309 0.220871 15.1125 0.577137 15.3217C0.921169 15.528 1.34948 15.5337 1.69885 15.3366C2.50495 14.9495 3.39184 14.7607 4.28571 14.7857C6.17486 14.7857 7.42856 15.4714 7.42856 15.9286C7.42856 16.2442 7.68442 16.5 8 16.5C8.31558 16.5 8.57141 16.2442 8.57141 15.9286C8.57141 15.4714 9.82514 14.7857 11.7143 14.7857C12.6084 14.7606 13.4955 14.9497 14.3017 15.3371C14.6511 15.5335 15.079 15.5276 15.4229 15.3217C15.7791 15.1125 15.9985 14.7309 16 14.3177V2.78571C16 1.48286 14.1577 0.5 11.7143 0.5ZM7.42856 14.3434C6.45597 13.8509 5.37543 13.61 4.28571 13.6429C3.19974 13.6191 2.12332 13.8502 1.14286 14.3177V2.78571C1.14286 2.32855 2.39656 1.64286 4.28571 1.64286C6.17486 1.64286 7.42856 2.32855 7.42856 2.78571V14.3434ZM14.8571 14.3394C13.8819 13.8547 12.803 13.6156 11.7143 13.6429C10.6246 13.61 9.544 13.8509 8.57141 14.3434V2.78571C8.57141 2.32855 9.82514 1.64286 11.7143 1.64286C13.6034 1.64286 14.8571 2.32855 14.8571 2.78571V14.3394Z" fill="#373434"/>
</svg>
