<svg width="16" height="17" viewBox="0 0 16 17" fill="none" xmlns="http://www.w3.org/2000/svg">
<path d="M13.5 2.375H12.25V1C12.25 0.7238 12.0262 0.5 11.75 0.5C11.4738 0.5 11.25 0.7238 11.25 1V2.375H4.75V1C4.75 0.7238 4.5262 0.5 4.25 0.5C3.9738 0.5 3.75 0.7238 3.75 1V2.375H2.5C1.1214 2.375 0 3.4964 0 4.875V14C0 15.3786 1.1214 16.5 2.5 16.5H13.5C14.8786 16.5 16 15.3786 16 14V4.875C16 3.4964 14.8786 2.375 13.5 2.375ZM2.5 3.375H3.75V4.75C3.75 5.0262 3.9738 5.25 4.25 5.25C4.5262 5.25 4.75 5.0262 4.75 4.75V3.375H11.25V4.9382C11.25 5.2144 11.4738 5.4382 11.75 5.4382C12.0262 5.4382 12.25 5.2144 12.25 4.9382V3.375H13.5C14.3272 3.375 15 4.0478 15 4.875V6.125H1V4.875C1 4.0478 1.6728 3.375 2.5 3.375ZM13.5 15.5H2.5C1.6728 15.5 1 14.8272 1 14V7.125H15V14C15 14.8272 14.3272 15.5 13.5 15.5Z" fill="#373434"/>
<path d="M10.8125 9.875H9.4375V8.5C9.4375 8.2238 9.2137 8 8.9375 8H7.0625C6.7863 8 6.5625 8.2238 6.5625 8.5V9.875H5.1875C4.9113 9.875 4.6875 10.0988 4.6875 10.375V12.271C4.6875 12.4046 4.7411 12.5326 4.8359 12.6264C4.9311 12.7204 5.0611 12.7716 5.1931 12.771L6.5625 12.7556V14.125C6.5625 14.4012 6.7863 14.625 7.0625 14.625H8.9375C9.2137 14.625 9.4375 14.4012 9.4375 14.125V12.771H10.8125C11.0887 12.771 11.3125 12.5472 11.3125 12.271V10.375C11.3125 10.0988 11.0887 9.875 10.8125 9.875ZM10.3125 11.771H8.9375C8.6613 11.771 8.4375 11.9948 8.4375 12.271V13.625H7.5625V12.25C7.5625 12.1164 7.5089 11.9884 7.4141 11.8946C7.3189 11.8006 7.1921 11.7498 7.0569 11.75L5.6875 11.7654V10.875H7.0625C7.3387 10.875 7.5625 10.6512 7.5625 10.375V9H8.4375V10.375C8.4375 10.6512 8.6613 10.875 8.9375 10.875H10.3125V11.771Z" fill="#373434"/>
</svg>
