<svg width="16" height="17" viewBox="0 0 16 17" fill="none" xmlns="http://www.w3.org/2000/svg">
<path d="M14.1538 1.32051H11.8974V1.11538C11.8974 0.952174 11.8326 0.795649 11.7172 0.680242C11.6018 0.564835 11.4453 0.5 11.2821 0.5C11.1188 0.5 10.9623 0.564835 10.8469 0.680242C10.7315 0.795649 10.6667 0.952174 10.6667 1.11538V1.32051H5.33333V1.11538C5.33333 0.952174 5.2685 0.795649 5.15309 0.680242C5.03768 0.564835 4.88116 0.5 4.71795 0.5C4.55474 0.5 4.39821 0.564835 4.28281 0.680242C4.1674 0.795649 4.10256 0.952174 4.10256 1.11538V1.32051H1.84615C1.35652 1.32051 0.886947 1.51502 0.540726 1.86124C0.194505 2.20746 0 2.67704 0 3.16667V14.6538C0 15.1435 0.194505 15.6131 0.540726 15.9593C0.886947 16.3055 1.35652 16.5 1.84615 16.5H14.1538C14.6435 16.5 15.1131 16.3055 15.4593 15.9593C15.8055 15.6131 16 15.1435 16 14.6538V3.16667C16 2.67704 15.8055 2.20746 15.4593 1.86124C15.1131 1.51502 14.6435 1.32051 14.1538 1.32051ZM14.7692 14.6538C14.7671 14.8164 14.7016 14.9717 14.5866 15.0866C14.4717 15.2016 14.3164 15.2671 14.1538 15.2692H1.84615C1.6836 15.2671 1.52831 15.2016 1.41336 15.0866C1.29841 14.9717 1.23289 14.8164 1.23077 14.6538V7.47436H14.7692V14.6538ZM14.7692 6.24359H1.23077V3.16667C1.23289 3.00412 1.29841 2.84882 1.41336 2.73387C1.52831 2.61892 1.6836 2.55341 1.84615 2.55128H4.10256V2.75641C4.10256 2.91962 4.1674 3.07615 4.28281 3.19155C4.39821 3.30696 4.55474 3.37179 4.71795 3.37179C4.88116 3.37179 5.03768 3.30696 5.15309 3.19155C5.2685 3.07615 5.33333 2.91962 5.33333 2.75641V2.55128H10.6667V2.75641C10.6667 2.91962 10.7315 3.07615 10.8469 3.19155C10.9623 3.30696 11.1188 3.37179 11.2821 3.37179C11.4453 3.37179 11.6018 3.30696 11.7172 3.19155C11.8326 3.07615 11.8974 2.91962 11.8974 2.75641V2.55128H14.1538C14.3164 2.55341 14.4717 2.61892 14.5866 2.73387C14.7016 2.84882 14.7671 3.00412 14.7692 3.16667V6.24359ZM5.10359 10.9615C5.03546 10.8417 5.00953 10.7025 5.02996 10.5662C5.05039 10.4299 5.116 10.3043 5.21626 10.2098C5.31653 10.1152 5.44564 10.057 5.58292 10.0445C5.72019 10.0321 5.85768 10.066 5.97333 10.141L7.17949 11.3226L9.20615 9.32051C9.32181 9.24553 9.4593 9.21154 9.59657 9.224C9.73384 9.23646 9.86296 9.29465 9.96322 9.38924C10.0635 9.48383 10.1291 9.60934 10.1495 9.74565C10.17 9.88197 10.144 10.0212 10.0759 10.141L7.61436 12.6026C7.49897 12.7178 7.34256 12.7825 7.17949 12.7825C7.01641 12.7825 6.86 12.7178 6.74462 12.6026L5.10359 10.9615Z" fill="#373434"/>
</svg>
