<svg width="16" height="16" viewBox="0 0 16 16" fill="none" xmlns="http://www.w3.org/2000/svg">
<g clip-path="url(#clip0_610_18953)">
<path d="M15.1724 12.5551C15.1724 12.8142 15.1149 13.0806 14.9925 13.3397C14.8701 13.5989 14.7117 13.8436 14.503 14.074C14.1502 14.4627 13.7615 14.7435 13.3224 14.9234C12.8905 15.1034 12.4226 15.197 11.9187 15.197C11.1844 15.197 10.3998 15.0242 9.57194 14.6715C8.74411 14.3187 7.91627 13.8436 7.09563 13.2461C6.2678 12.6415 5.48315 11.972 4.7345 11.2305C3.99304 10.4819 3.32358 9.69725 2.72609 8.87661C2.13581 8.05597 1.6607 7.23533 1.31517 6.4219C0.969641 5.60126 0.796875 4.81661 0.796875 4.06796C0.796875 3.57846 0.883258 3.11055 1.05602 2.67863C1.22879 2.23952 1.50234 1.8364 1.88386 1.47647C2.34457 1.02296 2.84847 0.799805 3.38117 0.799805C3.58273 0.799805 3.78429 0.842996 3.96425 0.929379C4.15141 1.01576 4.31698 1.14534 4.44656 1.3325L6.11663 3.68644C6.2462 3.8664 6.33978 4.03197 6.40457 4.19034C6.46936 4.34151 6.50535 4.49268 6.50535 4.62945C6.50535 4.80221 6.45496 4.97498 6.35418 5.14055C6.2606 5.30612 6.12382 5.47888 5.95106 5.65165L5.40397 6.22033C5.32478 6.29952 5.28879 6.3931 5.28879 6.50828C5.28879 6.56587 5.29599 6.61626 5.31039 6.67385C5.33198 6.73143 5.35358 6.77463 5.36797 6.81782C5.49755 7.05537 5.7207 7.36491 6.03744 7.73924C6.36138 8.11356 6.70691 8.49509 7.08124 8.87661C7.46996 9.25814 7.84429 9.61087 8.22581 9.9348C8.60014 10.2515 8.90967 10.4675 9.15443 10.5971C9.19042 10.6115 9.23361 10.6331 9.284 10.6547C9.34159 10.6763 9.39918 10.6835 9.46397 10.6835C9.58634 10.6835 9.67992 10.6403 9.75911 10.5611L10.3062 10.0212C10.4862 9.84122 10.6589 9.70445 10.8245 9.61806C10.9901 9.51728 11.1556 9.46689 11.3356 9.46689C11.4724 9.46689 11.6163 9.49569 11.7747 9.56048C11.9331 9.62526 12.0986 9.71884 12.2786 9.84122L14.6613 11.5329C14.8485 11.6625 14.9781 11.8136 15.0573 11.9936C15.1292 12.1736 15.1724 12.3535 15.1724 12.5551Z" stroke="#373434" stroke-miterlimit="10"/>
<path d="M12.6758 5.83493C12.6758 5.40302 12.3374 4.74075 11.8335 4.20086C11.3728 3.70415 10.7609 3.31543 10.1562 3.31543" stroke="#373434" stroke-linecap="round" stroke-linejoin="round"/>
<path d="M15.1953 5.83881C15.1953 3.05296 12.9421 0.799805 10.1562 0.799805" stroke="#373434" stroke-linecap="round" stroke-linejoin="round"/>
</g>
<defs>
<clipPath id="clip0_610_18953">
<rect width="16" height="16" fill="white"/>
</clipPath>
</defs>
</svg>
