<svg width="16" height="17" viewBox="0 0 16 17" fill="none" xmlns="http://www.w3.org/2000/svg">
<g clip-path="url(#clip0_610_4460)">
<path fill-rule="evenodd" clip-rule="evenodd" d="M8.47221 10.9722C8.34719 11.0972 8.17766 11.1674 8.00088 11.1674C7.8241 11.1674 7.65456 11.0972 7.52955 10.9722L3.75821 7.20088C3.69454 7.13938 3.64375 7.06582 3.60881 6.98448C3.57387 6.90315 3.55548 6.81567 3.55471 6.72715C3.55394 6.63863 3.57081 6.55084 3.60433 6.46891C3.63785 6.38698 3.68735 6.31254 3.74995 6.24995C3.81254 6.18735 3.88698 6.13785 3.96891 6.10433C4.05084 6.07081 4.13863 6.05394 4.22715 6.05471C4.31567 6.05548 4.40315 6.07387 4.48448 6.10881C4.56582 6.14375 4.63938 6.19454 4.70088 6.25821L8.00088 9.55821L11.3009 6.25821C11.4266 6.13677 11.595 6.06958 11.7698 6.0711C11.9446 6.07262 12.1118 6.14273 12.2354 6.26633C12.359 6.38994 12.4291 6.55715 12.4307 6.73195C12.4322 6.90674 12.365 7.07515 12.2435 7.20088L8.47221 10.9722Z" fill="#373434"/>
</g>
<defs>
<clipPath id="clip0_610_4460">
<rect width="16" height="16" fill="white" transform="translate(0 0.5)"/>
</clipPath>
</defs>
</svg>
