<svg width="16" height="16" viewBox="0 0 16 16" fill="none" xmlns="http://www.w3.org/2000/svg">
<g clip-path="url(#clip0_610_18926)">
<path d="M12.6477 11.3527L12.9304 13.6009C13.0029 14.1914 12.3578 14.604 11.8432 14.2981L8.80625 12.5266C8.47284 12.5266 8.14669 12.5053 7.82777 12.4626C8.36413 11.8436 8.68304 11.061 8.68304 10.2143C8.68304 8.1938 6.90002 6.55748 4.69663 6.55748C3.85586 6.55748 3.08032 6.79224 2.43525 7.20488C2.4135 7.02702 2.40625 6.84915 2.40625 6.66417C2.40625 3.42703 5.26922 0.801758 8.80625 0.801758C12.3433 0.801758 15.2062 3.42703 15.2062 6.66417C15.2062 8.58511 14.1988 10.2855 12.6477 11.3527Z" stroke="#373434" stroke-linecap="round" stroke-linejoin="round"/>
<path d="M8.80469 10.1989C8.80469 11.0781 8.48469 11.8908 7.94651 12.5336C7.22651 13.4202 6.08469 13.9891 4.80469 13.9891L2.90651 15.1343C2.58651 15.3337 2.17923 15.0604 2.22287 14.6836L2.40469 13.2281C1.43014 12.541 0.804688 11.4401 0.804688 10.1989C0.804688 8.89857 1.48833 7.7534 2.5356 7.07368C3.18287 6.64516 3.96105 6.40137 4.80469 6.40137C7.0156 6.40137 8.80469 8.10064 8.80469 10.1989Z" stroke="#373434" stroke-linecap="round" stroke-linejoin="round"/>
</g>
<defs>
<clipPath id="clip0_610_18926">
<rect width="16" height="16" fill="white"/>
</clipPath>
</defs>
</svg>
