<svg width="20" height="20" viewBox="0 0 20 20" fill="none" xmlns="http://www.w3.org/2000/svg">
<path fill-rule="evenodd" clip-rule="evenodd" d="M12.7709 10.5402C12.9176 10.3994 13 10.2084 13 10.0092C13 9.81007 12.9176 9.61906 12.7709 9.47821L8.34511 5.2293C8.27294 5.15756 8.18661 5.10034 8.09116 5.06098C7.9957 5.02161 7.89304 5.0009 7.78916 5.00003C7.68528 4.99916 7.58226 5.01817 7.48611 5.05593C7.38996 5.0937 7.30261 5.14947 7.22915 5.21999C7.15569 5.29051 7.0976 5.37437 7.05826 5.46668C7.01892 5.55898 6.99913 5.65789 7.00003 5.75762C7.00093 5.85734 7.02251 5.9559 7.06352 6.04754C7.10452 6.13917 7.16412 6.22205 7.23885 6.29134L11.1115 10.0092L7.23885 13.7271C7.09633 13.8688 7.01747 14.0585 7.01926 14.2554C7.02104 14.4524 7.10332 14.6408 7.24838 14.78C7.39343 14.9193 7.58966 14.9983 7.79479 15C7.99992 15.0017 8.19755 14.926 8.34511 14.7892L12.7709 10.5402Z" fill="#ABA5A5"/>
</svg>
