<svg width="36" height="36" viewBox="0 0 36 36" fill="none" xmlns="http://www.w3.org/2000/svg">
<rect x="0.5" y="0.5" width="35" height="35" rx="17.5" fill="white" stroke="#E61B77"/>
<path d="M25.4974 12.1673H22.9974V11.334C22.9974 10.6709 22.734 10.0351 22.2652 9.56622C21.7963 9.09738 21.1604 8.83398 20.4974 8.83398H15.4974C14.8344 8.83398 14.1985 9.09738 13.7296 9.56622C13.2608 10.0351 12.9974 10.6709 12.9974 11.334V12.1673H10.4974C10.2764 12.1673 10.0644 12.2551 9.90814 12.4114C9.75186 12.5677 9.66406 12.7796 9.66406 13.0007C9.66406 13.2217 9.75186 13.4336 9.90814 13.5899C10.0644 13.7462 10.2764 13.834 10.4974 13.834H10.5474L11.1391 23.259C11.2049 24.3187 11.6728 25.3133 12.4472 26.0396C13.2215 26.766 14.244 27.1694 15.3057 27.1673H20.7057C21.7675 27.1694 22.7899 26.766 23.5643 26.0396C24.3387 25.3133 24.8066 24.3187 24.8724 23.259L25.4474 13.834H25.4974C25.7184 13.834 25.9304 13.7462 26.0867 13.5899C26.2429 13.4336 26.3307 13.2217 26.3307 13.0007C26.3307 12.7796 26.2429 12.5677 26.0867 12.4114C25.9304 12.2551 25.7184 12.1673 25.4974 12.1673ZM14.6641 11.334C14.6641 11.113 14.7519 10.901 14.9081 10.7447C15.0644 10.5884 15.2764 10.5007 15.4974 10.5007H20.4974C20.7184 10.5007 20.9304 10.5884 21.0867 10.7447C21.2429 10.901 21.3307 11.113 21.3307 11.334V12.1673H14.6641V11.334ZM23.1974 23.159C23.1571 23.7942 22.876 24.3901 22.4115 24.8253C21.9469 25.2604 21.3339 25.5019 20.6974 25.5007H15.2974C14.6609 25.5019 14.0479 25.2604 13.5833 24.8253C13.1188 24.3901 12.8377 23.7942 12.7974 23.159L12.2141 13.834H23.7807L23.1974 23.159Z" fill="#E61B77"/>
<path d="M16.3333 16.334C16.1123 16.334 15.9004 16.4218 15.7441 16.5781C15.5878 16.7343 15.5 16.9463 15.5 17.1673V22.1673C15.5 22.3883 15.5878 22.6003 15.7441 22.7566C15.9004 22.9129 16.1123 23.0007 16.3333 23.0007C16.5543 23.0007 16.7663 22.9129 16.9226 22.7566C17.0789 22.6003 17.1667 22.3883 17.1667 22.1673V17.1673C17.1667 16.9463 17.0789 16.7343 16.9226 16.5781C16.7663 16.4218 16.5543 16.334 16.3333 16.334Z" fill="#E61B77"/>
<path d="M19.6615 16.334C19.4404 16.334 19.2285 16.4218 19.0722 16.5781C18.9159 16.7343 18.8281 16.9463 18.8281 17.1673V22.1673C18.8281 22.3883 18.9159 22.6003 19.0722 22.7566C19.2285 22.9129 19.4404 23.0007 19.6615 23.0007C19.8825 23.0007 20.0944 22.9129 20.2507 22.7566C20.407 22.6003 20.4948 22.3883 20.4948 22.1673V17.1673C20.4948 16.9463 20.407 16.7343 20.2507 16.5781C20.0944 16.4218 19.8825 16.334 19.6615 16.334Z" fill="#E61B77"/>
</svg>
