<svg width="16" height="16" viewBox="0 0 16 16" fill="none" xmlns="http://www.w3.org/2000/svg">
<g clip-path="url(#clip0_610_18935)">
<path d="M14.5447 8.58947V10.9137C14.5447 13.7263 12.2721 16 9.46078 16C6.64948 16 4.36004 13.7263 4.36004 10.9137V10.1221C1.86859 9.76842 0 7.61263 0 5.08632V0.724211C0 0.32 0.319848 0 0.723867 0H2.9123C3.31632 0 3.63617 0.32 3.63617 0.724211C3.63617 1.12842 3.31632 1.44842 2.9123 1.44842H1.46457V5.08632C1.46457 7.09053 3.09748 8.72421 5.10074 8.72421C7.104 8.72421 8.73691 7.09053 8.73691 5.08632V1.44842H7.28918C6.88516 1.44842 6.56531 1.12842 6.56531 0.724211C6.56531 0.32 6.88516 0 7.28918 0H9.47761C9.84796 0 10.1846 0.32 10.1846 0.724211V5.08632C10.1846 7.61263 8.31606 9.75158 5.82461 10.1221V10.9137C5.82461 12.9179 7.45752 14.5516 9.46078 14.5516C11.464 14.5516 13.0969 12.9179 13.0969 10.9137V8.58947C11.9691 8.18526 11.363 6.93895 11.767 5.81053C12.1711 4.68211 13.4168 4.07579 14.5447 4.48C15.6726 4.88421 16.2786 6.13053 15.8746 7.25895C15.6557 7.88211 15.1507 8.37053 14.5447 8.58947Z" fill="#373434" stroke="white" stroke-width="0.3"/>
<circle cx="14" cy="6" r="1" fill="white"/>
</g>
<defs>
<clipPath id="clip0_610_18935">
<rect width="16" height="16" fill="white"/>
</clipPath>
</defs>
</svg>
