<svg width="25" height="24" viewBox="0 0 25 24" fill="none" xmlns="http://www.w3.org/2000/svg">
<path d="M8.0835 16H15.3467C19.8343 16 20.5168 13.1808 21.3445 9.06908C21.5833 7.88311 21.7027 7.29013 21.4156 6.89507C21.1285 6.5 20.5782 6.5 19.4776 6.5H6.0835" stroke="#141B34" stroke-width="1.5" stroke-linecap="round"/>
<path d="M8.0835 16L5.46223 3.51493C5.23965 2.62459 4.43968 2 3.52195 2H2.5835" stroke="#141B34" stroke-width="1.5" stroke-linecap="round"/>
<path d="M8.9635 16H8.55207C7.18872 16 6.0835 17.1513 6.0835 18.5714C6.0835 18.8081 6.2677 19 6.49493 19H17.5835" stroke="#141B34" stroke-width="1.5" stroke-linecap="round" stroke-linejoin="round"/>
<path d="M10.5835 22C11.4119 22 12.0835 21.3284 12.0835 20.5C12.0835 19.6716 11.4119 19 10.5835 19C9.75507 19 9.0835 19.6716 9.0835 20.5C9.0835 21.3284 9.75507 22 10.5835 22Z" stroke="#141B34" stroke-width="1.5"/>
<path d="M17.5835 22C18.4119 22 19.0835 21.3284 19.0835 20.5C19.0835 19.6716 18.4119 19 17.5835 19C16.7551 19 16.0835 19.6716 16.0835 20.5C16.0835 21.3284 16.7551 22 17.5835 22Z" stroke="#141B34" stroke-width="1.5"/>
</svg>
