<svg width="25" height="24" viewBox="0 0 25 24" fill="none" xmlns="http://www.w3.org/2000/svg">
<path d="M2.0835 4.5H8.84086C9.63651 4.5 10.3996 4.81607 10.9622 5.37868L14.0835 8.5" stroke="#141B34" stroke-width="1.5" stroke-linecap="round" stroke-linejoin="round"/>
<path d="M5.0835 13.5H2.0835" stroke="#141B34" stroke-width="1.5" stroke-linecap="round" stroke-linejoin="round"/>
<path d="M8.5835 7.5L10.5835 9.5C11.1358 10.0523 11.1358 10.9477 10.5835 11.5C10.0312 12.0523 9.13579 12.0523 8.5835 11.5L7.0835 10C6.22281 10.8607 4.86021 10.9575 3.88644 10.2272L3.5835 10" stroke="#141B34" stroke-width="1.5" stroke-linecap="round" stroke-linejoin="round"/>
<path d="M5.0835 11V15.5C5.0835 17.3856 5.0835 18.3284 5.66929 18.9142C6.25507 19.5 7.19788 19.5 9.0835 19.5H18.0835C19.9691 19.5 20.9119 19.5 21.4977 18.9142C22.0835 18.3284 22.0835 17.3856 22.0835 15.5V12.5C22.0835 10.6144 22.0835 9.67157 21.4977 9.08579C20.9119 8.5 19.9691 8.5 18.0835 8.5H9.5835" stroke="#141B34" stroke-width="1.5" stroke-linecap="round" stroke-linejoin="round"/>
<path d="M15.3335 14C15.3335 14.9665 14.55 15.75 13.5835 15.75C12.617 15.75 11.8335 14.9665 11.8335 14C11.8335 13.0335 12.617 12.25 13.5835 12.25C14.55 12.25 15.3335 13.0335 15.3335 14Z" stroke="#141B34" stroke-width="1.5" stroke-linecap="round" stroke-linejoin="round"/>
</svg>
