<svg width="25" height="24" viewBox="0 0 25 24" fill="none" xmlns="http://www.w3.org/2000/svg">
<path d="M6.5835 3.5H4.5835C4.03122 3.5 3.5835 3.94772 3.5835 4.5V8C3.5835 11.0376 6.04593 13.5 9.0835 13.5C12.1211 13.5 14.5835 11.0376 14.5835 8V4.5C14.5835 3.94772 14.1358 3.5 13.5835 3.5H11.5835" stroke="#141B34" stroke-width="1.5" stroke-linecap="round" stroke-linejoin="round"/>
<path d="M18.5835 15.5V16.75C18.5835 19.3734 16.4569 21.5 13.8335 21.5C11.2101 21.5 9.0835 19.3734 9.0835 16.75V13.5" stroke="#141B34" stroke-width="1.5" stroke-linecap="round" stroke-linejoin="round"/>
<path d="M11.5835 2.5V4.5" stroke="#141B34" stroke-width="1.5" stroke-linecap="round" stroke-linejoin="round"/>
<path d="M6.5835 2.5V4.5" stroke="#141B34" stroke-width="1.5" stroke-linecap="round" stroke-linejoin="round"/>
<path d="M20.5835 13.5C20.5835 14.6046 19.6881 15.5 18.5835 15.5C17.4789 15.5 16.5835 14.6046 16.5835 13.5C16.5835 12.3954 17.4789 11.5 18.5835 11.5C19.6881 11.5 20.5835 12.3954 20.5835 13.5Z" stroke="#141B34" stroke-width="1.5"/>
</svg>
