<svg width="20" height="20" viewBox="0 0 20 20" fill="none" xmlns="http://www.w3.org/2000/svg">
<path d="M18 7.59302V13.407C18 14.359 17.4717 15.243 16.6175 15.7275L11.3869 18.643C10.5327 19.119 9.47606 19.119 8.6131 18.643L3.3825 15.7275C2.52834 15.2515 2 14.3675 2 13.407V7.59302C2 6.64102 2.52834 5.75699 3.3825 5.27249L8.6131 2.357C9.46725 1.881 10.5239 1.881 11.3869 2.357L16.6175 5.27249C17.4717 5.75699 18 6.63252 18 7.59302Z" stroke="#373434" stroke-width="1.5" stroke-linecap="round" stroke-linejoin="round"/>
<path d="M10.0049 9.65183C11.138 9.65183 12.0566 8.76511 12.0566 7.67132C12.0566 6.57752 11.138 5.69086 10.0049 5.69086C8.87172 5.69086 7.95312 6.57752 7.95312 7.67132C7.95312 8.76511 8.87172 9.65183 10.0049 9.65183Z" stroke="#373434" stroke-width="1.5" stroke-linecap="round" stroke-linejoin="round"/>
<path d="M13.529 14.4617C13.529 12.9318 11.9527 11.6908 10.0067 11.6908C8.0606 11.6908 6.48438 12.9318 6.48438 14.4617" stroke="#373434" stroke-width="1.5" stroke-linecap="round" stroke-linejoin="round"/>
</svg>
