<svg width="20" height="20" viewBox="0 0 20 20" fill="none" xmlns="http://www.w3.org/2000/svg">
<path fill-rule="evenodd" clip-rule="evenodd" d="M8.43678 1.69649C9.25541 0.767837 10.7449 0.767837 11.5628 1.69649L12.1877 2.4059C12.355 2.59557 12.6197 2.67851 12.8706 2.61938L13.8096 2.3985C15.0388 2.10948 16.2442 2.95191 16.3389 4.1663L16.4106 5.09332C16.4302 5.34129 16.5933 5.55722 16.8331 5.65164L17.7269 6.00389C18.8981 6.46534 19.359 7.82834 18.6932 8.86362L18.1853 9.65432C18.0487 9.86616 18.0487 10.1338 18.1853 10.3457L18.6932 11.1356C19.359 12.1718 18.8981 13.5339 17.7269 13.9953L16.8331 14.3484C16.5932 14.442 16.4302 14.6587 16.4106 14.9067L16.3389 15.8337C16.2441 17.0481 15.0388 17.8905 13.8096 17.6015L12.8706 17.3806C12.6197 17.3215 12.355 17.4044 12.1877 17.5941L11.5628 18.3035C10.7451 19.2322 9.25539 19.2322 8.43678 18.3035L7.81192 17.5941C7.64461 17.4044 7.37997 17.3215 7.12901 17.3806L6.19001 17.6015C4.96079 17.8905 3.75538 17.0481 3.66163 15.8337L3.58907 14.9067C3.57029 14.6587 3.40639 14.442 3.16737 14.3484L2.27276 13.9953C1.10157 13.5338 0.64148 12.1717 1.30644 11.1356L1.8152 10.3457C1.95093 10.1338 1.95093 9.86618 1.8152 9.65432L1.30644 8.86362C0.641459 7.82823 1.10157 6.46527 2.27276 6.00389L3.16737 5.65164C3.4064 5.55722 3.5703 5.34126 3.58907 5.09332L3.66163 4.1663C3.75553 2.95193 4.96085 2.10948 6.19001 2.3985L7.12901 2.61938C7.37997 2.6785 7.64461 2.59557 7.81192 2.4059L8.43678 1.69649ZM10.5214 2.5455C10.2482 2.23594 9.75139 2.23594 9.47908 2.5455L8.85421 3.25491C8.35227 3.82473 7.55925 4.0727 6.80465 3.89536L5.8665 3.67449C5.45591 3.57842 5.05471 3.85923 5.02311 4.26402L4.95141 5.19104C4.89336 5.93576 4.40338 6.58441 3.68461 6.86769L2.79087 7.21994C2.3999 7.37349 2.24625 7.82836 2.46819 8.17323L2.97695 8.96393C3.38499 9.59862 3.38499 10.4016 2.97695 11.0363L2.46819 11.827C2.24625 12.1719 2.3999 12.6268 2.79087 12.7803L3.68461 13.1326C4.40338 13.4159 4.89334 14.0645 4.95141 14.8092L5.02311 15.7362C5.05469 16.141 5.45591 16.4218 5.8665 16.325L6.80465 16.1049C7.55925 15.9276 8.35227 16.1755 8.85421 16.7454L9.47908 17.454C9.75139 17.7643 10.2482 17.7643 10.5214 17.454L11.1454 16.7454C11.6473 16.1755 12.4412 15.9276 13.1949 16.1049L14.1339 16.325C14.5437 16.4219 14.9449 16.141 14.9765 15.7362L15.049 14.8092C15.1062 14.0645 15.5971 13.4159 16.315 13.1326L17.2096 12.7803C17.5997 12.6268 17.7533 12.1719 17.5314 11.827L17.0235 11.0363C16.6146 10.4017 16.6146 9.59864 17.0235 8.96393L17.5314 8.17323C17.7533 7.82838 17.5997 7.37349 17.2096 7.21994L16.315 6.86769C15.5971 6.58441 15.1062 5.93576 15.049 5.19104L14.9765 4.26402C14.9449 3.85923 14.5437 3.57843 14.1339 3.67449L13.1949 3.89536C12.4412 4.07271 11.6473 3.82475 11.1454 3.25491L10.5214 2.5455Z" fill="#373434"/>
<path fill-rule="evenodd" clip-rule="evenodd" d="M12.724 11.6662C12.2851 11.6489 11.9154 11.9766 11.8983 12.3986C11.8804 12.8206 12.2219 13.1761 12.6599 13.1926C13.0988 13.2098 13.4686 12.8814 13.4865 12.4602C13.5036 12.0381 13.1629 11.6826 12.724 11.6662ZM10.533 12.346C10.5808 11.199 11.5867 10.3073 12.7786 10.3533C13.9715 10.3992 14.8988 11.3665 14.851 12.5126C14.8032 13.6597 13.7982 14.5514 12.6054 14.5054C11.4125 14.4594 10.4852 13.4922 10.533 12.346Z" fill="#373434"/>
<path fill-rule="evenodd" clip-rule="evenodd" d="M7.86572 6.71296C7.4883 6.69818 7.17066 6.9798 7.15529 7.34273C7.13992 7.70483 7.43365 8.01109 7.81022 8.02505C8.18764 8.03983 8.50528 7.7582 8.52065 7.39528C8.53602 7.03317 8.24229 6.72691 7.86572 6.71296ZM5.79079 7.29018C5.83605 6.20224 6.78983 5.35653 7.92037 5.40004C9.05091 5.44355 9.93125 6.36071 9.886 7.44783C9.83989 8.53576 8.88697 9.38147 7.75557 9.33796C6.62503 9.29444 5.74469 8.3773 5.79079 7.29018Z" fill="#373434"/>
<path fill-rule="evenodd" clip-rule="evenodd" d="M14.166 6.34906C14.4196 6.61754 14.3982 7.03302 14.1182 7.27689L7.15728 13.3348C6.87722 13.5778 6.44515 13.5573 6.19239 13.2888C5.93878 13.0195 5.96099 12.604 6.24021 12.361L13.2011 6.30307C13.4811 6.0592 13.9132 6.07974 14.166 6.34906Z" fill="#373434"/>
</svg>
