<svg width="20" height="20" viewBox="0 0 20 20" fill="none" xmlns="http://www.w3.org/2000/svg">
<g clip-path="url(#clip0_7104_4247)">
<path d="M10.0175 2.42514C7.25914 2.42514 5.01747 4.66681 5.01747 7.42514V9.83347C5.01747 10.3418 4.80081 11.1168 4.54247 11.5501L3.58414 13.1418C2.99247 14.1251 3.40081 15.2168 4.48414 15.5835C8.07581 16.7835 11.9508 16.7835 15.5425 15.5835C16.5508 15.2501 16.9925 14.0585 16.4425 13.1418L15.4841 11.5501C15.2341 11.1168 15.0175 10.3418 15.0175 9.83347V7.42514C15.0175 4.67514 12.7675 2.42514 10.0175 2.42514Z" stroke="#3A3A3A" stroke-width="1.5" stroke-miterlimit="10" stroke-linecap="round"/>
<path d="M11.5599 2.66661C11.3016 2.59161 11.0349 2.53327 10.7599 2.49994C9.9599 2.39994 9.19323 2.45827 8.47656 2.66661C8.71823 2.04994 9.31823 1.61661 10.0182 1.61661C10.7182 1.61661 11.3182 2.04994 11.5599 2.66661Z" stroke="#3A3A3A" stroke-width="1.5" stroke-miterlimit="10" stroke-linecap="round" stroke-linejoin="round"/>
<path d="M12.5156 15.8834C12.5156 17.2584 11.3906 18.3834 10.0156 18.3834C9.33229 18.3834 8.69896 18.1001 8.24896 17.6501C7.79896 17.2001 7.51562 16.5667 7.51562 15.8834" stroke="#3A3A3A" stroke-width="1.5" stroke-miterlimit="10"/>
</g>
<defs>
<clipPath id="clip0_7104_4247">
<rect width="20" height="20" fill="white"/>
</clipPath>
</defs>
</svg>
