<svg width="20" height="20" viewBox="0 0 20 20" fill="none" xmlns="http://www.w3.org/2000/svg">
<path d="M7.73047 6.79993H17.5525" stroke="#373434" stroke-width="1.5" stroke-miterlimit="10" stroke-linecap="round" stroke-linejoin="round"/>
<path d="M7.11688 18C7.68194 18 8.14001 17.5523 8.14001 17C8.14001 16.4477 7.68194 16 7.11688 16C6.55182 16 6.09375 16.4477 6.09375 17C6.09375 17.5523 6.55182 18 7.11688 18Z" stroke="#373434" stroke-width="1.5" stroke-miterlimit="10" stroke-linecap="round" stroke-linejoin="round"/>
<path d="M13.6638 18C14.2288 18 14.6869 17.5523 14.6869 17C14.6869 16.4477 14.2288 16 13.6638 16C13.0987 16 12.6406 16.4477 12.6406 17C12.6406 17.5523 13.0987 18 13.6638 18Z" stroke="#373434" stroke-width="1.5" stroke-miterlimit="10" stroke-linecap="round" stroke-linejoin="round"/>
<path d="M2 2H3.4242C4.30818 2 5.0039 2.744 4.93024 3.6L4.25088 11.568C4.13629 12.872 5.19215 13.992 6.5345 13.992H15.2516C16.4302 13.992 17.4615 13.048 17.5515 11.904L17.9935 5.90399C18.0917 4.576 17.0604 3.49599 15.6935 3.49599H5.12668" stroke="#373434" stroke-width="1.5" stroke-miterlimit="10" stroke-linecap="round" stroke-linejoin="round"/>
</svg>
