<svg width="20" height="20" viewBox="0 0 20 20" fill="none" xmlns="http://www.w3.org/2000/svg">
<path d="M8 10.5C8 11.327 8.673 12 9.5 12C10.327 12 11 11.327 11 10.5C11 9.673 10.327 9 9.5 9C8.673 9 8 9.673 8 10.5Z" fill="#3A3A3A"/>
<path d="M8 16.5C8 17.327 8.673 18 9.5 18C10.327 18 11 17.327 11 16.5C11 15.673 10.327 15 9.5 15C8.673 15 8 15.673 8 16.5Z" fill="#3A3A3A"/>
<path d="M8 4.5C8 5.327 8.673 6 9.5 6C10.327 6 11 5.327 11 4.5C11 3.673 10.327 3 9.5 3C8.673 3 8 3.673 8 4.5Z" fill="#3A3A3A"/>
</svg>
