<svg width="22" height="23" viewBox="0 0 22 23" fill="none" xmlns="http://www.w3.org/2000/svg">
<path d="M17.25 15C17.0511 15 16.8603 15.079 16.7197 15.2197C16.579 15.3603 16.5 15.5511 16.5 15.75V17.25C16.4979 17.7432 16.3338 18.222 16.033 18.6128C15.7321 19.0036 15.3112 19.2848 14.835 19.413C14.668 18.9964 14.3803 18.6392 14.0087 18.3874C13.6372 18.1356 13.1988 18.0007 12.75 18H11.25C10.6533 18 10.081 18.2371 9.65901 18.659C9.23705 19.081 9 19.6533 9 20.25C9 20.8467 9.23705 21.419 9.65901 21.841C10.081 22.2629 10.6533 22.5 11.25 22.5H12.75C13.225 22.4984 13.6873 22.3462 14.0704 22.0652C14.4534 21.7842 14.7374 21.3889 14.8815 20.9363C15.7522 20.7875 16.5425 20.3362 17.113 19.6618C17.6835 18.9874 17.9976 18.1333 18 17.25V15.75C18 15.5511 17.921 15.3603 17.7803 15.2197C17.6397 15.079 17.4489 15 17.25 15Z" fill="#373434"/>
<path d="M17.6503 7.15034H16.9003V6.40034C16.9003 4.80904 16.2682 3.28291 15.143 2.15769C14.0178 1.03248 12.4916 0.400335 10.9003 0.400335C9.30904 0.400335 7.78291 1.03248 6.65769 2.15769C5.53248 3.28291 4.90034 4.80904 4.90034 6.40034V7.15034H4.15034C3.15614 7.15153 2.203 7.547 1.5 8.25C0.796997 8.953 0.401526 9.90614 0.400335 10.9003V12.4003C0.401526 13.3945 0.796997 14.3477 1.5 15.0507C2.203 15.7537 3.15614 16.1491 4.15034 16.1503H5.65034C5.84925 16.1503 6.04001 16.0713 6.18067 15.9307C6.32132 15.79 6.40034 15.5992 6.40034 15.4003V6.40034C6.40034 5.20686 6.87444 4.06227 7.71836 3.21835C8.56227 2.37444 9.70686 1.90034 10.9003 1.90034C12.0938 1.90034 13.2384 2.37444 14.0823 3.21835C14.9262 4.06227 15.4003 5.20686 15.4003 6.40034V15.4003L15.62 15.9307C15.7607 16.0713 15.9514 16.1503 16.1503 16.1503H17.6503C18.6445 16.1491 19.5977 15.7537 20.3007 15.0507C21.0037 14.3477 21.3991 13.3945 21.4003 12.4003V10.9003C21.3991 9.90614 21.0037 8.953 20.3007 8.25C19.5977 7.547 18.6445 7.15153 17.6503 7.15034Z" fill="#373434"/>
</svg>
