<svg width="22" height="21" viewBox="0 0 22 21" fill="none" xmlns="http://www.w3.org/2000/svg">
<path fill-rule="evenodd" clip-rule="evenodd" d="M12.7798 13.7686L19.2029 20.1913C19.6134 20.6029 20.2808 20.6029 20.6913 20.1913C21.1029 19.7808 21.1029 19.1135 20.6913 18.703L14.2693 12.2803C15.1903 11.0498 15.7366 9.52256 15.7366 7.86794C15.7366 3.80189 12.4356 0.5 8.36832 0.5C4.30206 0.5 1 3.80189 1 7.86794C1 11.935 4.30206 15.2359 8.36832 15.2359C10.022 15.2359 11.5493 14.6906 12.7798 13.7686ZM8.36832 2.60512C11.2736 2.60512 13.6314 4.96392 13.6314 7.86794C13.6314 10.773 11.2736 13.1307 8.36832 13.1307C5.46415 13.1307 3.10524 10.773 3.10524 7.86794C3.10524 4.96392 5.46415 2.60512 8.36832 2.60512Z" fill="#373434" stroke="white" stroke-width="0.6"/>
</svg>
