<svg width="48" height="48" viewBox="0 0 48 48" fill="none" xmlns="http://www.w3.org/2000/svg">
<path d="M22.514 8.59991V11.8389C22.514 13.0905 21.7945 14.2319 20.6663 14.7713L16.3183 16.8517C14.761 17.5975 12.9377 16.5623 12.7788 14.8431L12.6108 13.0136C12.5329 12.1657 12.709 11.3461 13.0804 10.6358C13.643 9.56216 13.5732 8.26899 12.9043 7.25816C11.9642 5.83548 11.5625 4.06372 11.8984 2.27473C12.1466 0.955576 13.2987 0 14.641 0H14.6415C16.2191 0 17.7321 0.626823 18.8475 1.74259L20.2565 3.152C21.7014 4.59689 22.514 6.55689 22.514 8.59991Z" fill="url(#paint0_linear_4661_2193)"/>
<path d="M22.1564 6.27344H12.3672C12.5197 6.61603 12.7004 6.9445 12.9065 7.25697C13.5757 8.26779 13.6453 9.56097 13.0825 10.6339C12.7117 11.3445 12.5347 12.1643 12.6128 13.0123L12.7813 14.8419C12.9404 16.5605 14.7634 17.5958 16.3201 16.8504L20.6684 14.7694C21.7968 14.2301 22.5159 13.0894 22.5159 11.8377V8.59814C22.5159 7.80191 22.3926 7.01885 22.1564 6.27344Z" fill="url(#paint1_linear_4661_2193)"/>
<path d="M22.011 10.4354C22.011 7.54138 19.4513 5.19531 16.2939 5.19531C14.8339 5.19531 13.5025 5.69762 12.4922 6.52303C12.6176 6.77677 12.7573 7.02326 12.9133 7.25941C13.5821 8.27023 13.6519 9.56341 13.0894 10.637C12.718 11.3473 12.542 12.167 12.6198 13.0149L12.7611 14.5537C13.7337 15.2556 14.96 15.6756 16.2939 15.6756C19.4514 15.6755 22.011 13.3294 22.011 10.4354Z" fill="url(#paint2_linear_4661_2193)"/>
<path d="M18.6581 13.1541C21.1099 13.1541 23.0974 11.9968 23.0974 10.5692C23.0974 9.14165 21.1099 7.98438 18.6581 7.98438C16.2063 7.98438 14.2188 9.14165 14.2188 10.5692C14.2188 11.9968 16.2063 13.1541 18.6581 13.1541Z" fill="url(#paint3_linear_4661_2193)"/>
<path d="M34.9093 10.6358C35.2816 11.3461 35.4577 12.1657 35.3788 13.0136L35.2108 14.8431C35.0529 16.5623 33.2295 17.5974 31.6713 16.8517L27.3243 14.7713C26.1951 14.232 25.4766 13.0905 25.4766 11.8389V8.59953C25.4766 6.55633 26.2882 4.59671 27.733 3.15191L29.1433 1.74193C30.2586 0.626541 31.7712 0 33.3486 0C34.6909 0 35.843 0.955576 36.0912 2.27464C36.4281 4.06362 36.0254 5.83539 35.0853 7.25807C34.4176 8.26899 34.3478 9.56216 34.9093 10.6358Z" fill="url(#paint4_linear_4661_2193)"/>
<path d="M35.086 7.25697C35.2921 6.9445 35.4728 6.61603 35.6253 6.27344H25.8361C25.5999 7.01885 25.4766 7.80191 25.4766 8.59814V11.8377C25.4766 13.0894 26.1956 14.2301 27.3241 14.7694L31.6714 16.8504C33.23 17.5958 35.053 16.5605 35.2112 14.8419L35.3787 13.0123C35.4577 12.1643 35.2817 11.3445 34.909 10.6339C34.3481 9.56097 34.4177 8.26779 35.086 7.25697Z" fill="url(#paint5_linear_4661_2193)"/>
<path d="M25.9844 10.4354C25.9844 7.54138 28.544 5.19531 31.7015 5.19531C33.1614 5.19531 34.4928 5.69762 35.5031 6.52303C35.3777 6.77677 35.2381 7.02326 35.0821 7.25941C34.4133 8.27023 34.3434 9.56341 34.906 10.637C35.2774 11.3473 35.4534 12.167 35.3755 13.0149L35.2343 14.5537C34.2616 15.2556 33.0354 15.6756 31.7015 15.6756C28.5439 15.6755 25.9844 13.3294 25.9844 10.4354Z" fill="url(#paint6_linear_4661_2193)"/>
<path d="M29.3378 13.1541C31.7896 13.1541 33.7771 11.9968 33.7771 10.5692C33.7771 9.14165 31.7896 7.98438 29.3378 7.98438C26.886 7.98438 24.8984 9.14165 24.8984 10.5692C24.8984 11.9968 26.886 13.1541 29.3378 13.1541Z" fill="url(#paint7_linear_4661_2193)"/>
<path d="M27.5537 10.5225C27.5818 12.4871 26.0115 14.1025 24.0465 14.1305C22.0815 14.1586 20.4659 12.5886 20.4379 10.624C20.4098 8.65938 21.9801 7.04404 23.9451 7.01599C25.9101 6.98804 27.5258 8.55792 27.5537 10.5225Z" fill="url(#paint8_linear_4661_2193)"/>
<path d="M43.5016 47.5H4.49734C3.23889 47.5 2.21875 46.4798 2.21875 45.2214V21.4661C2.21875 20.2076 3.23889 19.1875 4.49734 19.1875H43.5016C44.76 19.1875 45.7802 20.2076 45.7802 21.4661V45.2213C45.7802 46.4798 44.76 47.5 43.5016 47.5Z" fill="url(#paint9_linear_4661_2193)"/>
<path d="M43.5016 19.1875H4.49734C3.23889 19.1875 2.21875 20.2076 2.21875 21.4661V23.8575C2.21875 23.8575 15.0395 37.3535 25.0839 47.4999H43.5016C44.76 47.4999 45.7802 46.4797 45.7802 45.2213V21.466C45.7802 20.2076 44.76 19.1875 43.5016 19.1875Z" fill="url(#paint10_linear_4661_2193)"/>
<path d="M24 19.1797H38.4628V47.4921H24V19.1797Z" fill="url(#paint11_linear_4661_2193)"/>
<path d="M2.21875 36.0469V45.2193C2.21875 46.4777 3.23889 47.4979 4.49734 47.4979H43.5016C44.76 47.4979 45.7802 46.4777 45.7802 45.2193V36.0469H2.21875Z" fill="url(#paint12_linear_4661_2193)"/>
<path d="M27.3937 48.0018H20.5996C19.9189 48.0018 19.3672 47.4501 19.3672 46.7694V20.4199C19.3672 19.7392 19.9189 19.1875 20.5996 19.1875H27.3937C28.0744 19.1875 28.6261 19.7392 28.6261 20.4199V46.7694C28.6261 47.4501 28.0744 48.0018 27.3937 48.0018Z" fill="url(#paint13_linear_4661_2193)"/>
<path d="M19.3672 20.4199V41.6795C21.3011 43.6631 23.2379 45.6378 25.0812 47.4999H28.3848C28.5358 47.2954 28.6262 47.0432 28.6262 46.7694V20.4199C28.6262 19.7392 28.0745 19.1875 27.3938 19.1875H20.5997C19.9189 19.1875 19.3672 19.7392 19.3672 20.4199Z" fill="url(#paint14_linear_4661_2193)"/>
<path d="M44.8329 23.993H3.16706C1.41798 23.993 0 22.575 0 20.8259V16.2764C0 14.5274 1.41798 13.1094 3.16706 13.1094H44.8329C46.582 13.1094 48 14.5274 48 16.2764V20.8259C48 22.575 46.582 23.993 44.8329 23.993Z" fill="url(#paint15_linear_4661_2193)"/>
<path d="M44.8221 13.1094H16.8256L13.3281 16.6069L20.7143 23.993H44.8221C46.5711 23.993 47.9891 22.575 47.9891 20.8259V16.2764C47.9891 14.5273 46.5711 13.1094 44.8221 13.1094Z" fill="url(#paint16_linear_4661_2193)"/>
<path d="M24 13.1094H38.4628V23.993H24V13.1094Z" fill="url(#paint17_linear_4661_2193)"/>
<path d="M42.8395 23.9951H24V15.8125H34.6569L42.8395 23.9951Z" fill="url(#paint18_linear_4661_2193)"/>
<path d="M28.0042 24.5657H19.9893C19.6458 24.5657 19.3672 24.2872 19.3672 23.9436V13.169C19.3672 12.8255 19.6457 12.5469 19.9893 12.5469H28.0042C28.3477 12.5469 28.6263 12.8254 28.6263 13.169V23.9436C28.6262 24.2871 28.3477 24.5657 28.0042 24.5657Z" fill="url(#paint19_linear_4661_2193)"/>
<path d="M28.6265 13.169V23.9436C28.6265 24.2871 28.3479 24.5657 28.0044 24.5657H21.2891L19.3672 22.6438V13.169C19.3672 13.1502 19.3681 13.1323 19.37 13.1144C19.3973 12.7963 19.6646 12.5469 19.9893 12.5469H28.0044C28.3291 12.5469 28.5964 12.7963 28.6237 13.1144C28.6255 13.1323 28.6265 13.1502 28.6265 13.169Z" fill="url(#paint20_linear_4661_2193)"/>
<path d="M23.9953 12.5489L23.9209 12.4994C21.382 10.8129 18.0061 11.1501 15.8508 13.3054L13.3387 15.8175C12.9823 16.1738 13.2348 16.783 13.7386 16.783H14.0298C14.9918 16.783 15.7717 17.5629 15.7717 18.5249C15.7717 19.0289 16.3809 19.2812 16.7373 18.9248L22.3804 13.2817C22.8122 12.8499 23.386 12.5895 23.9953 12.5489Z" fill="url(#paint21_linear_4661_2193)"/>
<path d="M23.9922 12.5489L24.0666 12.4994C26.6056 10.8129 29.9815 11.1501 32.1368 13.3054L34.6488 15.8175C35.0052 16.1738 34.7528 16.783 34.2489 16.783H33.9577C32.9957 16.783 32.2158 17.5629 32.2158 18.5249C32.2158 19.0289 31.6066 19.2812 31.2503 18.9248L25.6072 13.2817C25.1753 12.8499 24.6015 12.5895 23.9922 12.5489Z" fill="url(#paint22_linear_4661_2193)"/>
<defs>
<linearGradient id="paint0_linear_4661_2193" x1="13.577" y1="6.46231" x2="21.8856" y2="14.7709" gradientUnits="userSpaceOnUse">
<stop stop-color="#FEE45A"/>
<stop offset="1" stop-color="#FEA613"/>
</linearGradient>
<linearGradient id="paint1_linear_4661_2193" x1="17.1653" y1="9.19927" x2="18.0437" y2="13.0894" gradientUnits="userSpaceOnUse">
<stop stop-color="#FEA613" stop-opacity="0"/>
<stop offset="1" stop-color="#E94444"/>
</linearGradient>
<linearGradient id="paint2_linear_4661_2193" x1="18.2528" y1="8.81762" x2="25.437" y2="2.88134" gradientUnits="userSpaceOnUse">
<stop stop-color="#FEA613" stop-opacity="0"/>
<stop offset="1" stop-color="#E94444"/>
</linearGradient>
<linearGradient id="paint3_linear_4661_2193" x1="18.5916" y1="10.9112" x2="19.7385" y2="5.00856" gradientUnits="userSpaceOnUse">
<stop stop-color="#FEA613" stop-opacity="0"/>
<stop offset="1" stop-color="#E94444"/>
</linearGradient>
<linearGradient id="paint4_linear_4661_2193" x1="30.089" y1="6.69129" x2="37.5621" y2="14.1644" gradientUnits="userSpaceOnUse">
<stop stop-color="#FEE45A"/>
<stop offset="1" stop-color="#FEA613"/>
</linearGradient>
<linearGradient id="paint5_linear_4661_2193" x1="31.1164" y1="8.75532" x2="29.8614" y2="12.771" gradientUnits="userSpaceOnUse">
<stop stop-color="#FEA613" stop-opacity="0"/>
<stop offset="1" stop-color="#E94444"/>
</linearGradient>
<linearGradient id="paint6_linear_4661_2193" x1="29.7426" y1="8.81762" x2="22.5583" y2="2.88134" gradientUnits="userSpaceOnUse">
<stop stop-color="#FEA613" stop-opacity="0"/>
<stop offset="1" stop-color="#E94444"/>
</linearGradient>
<linearGradient id="paint7_linear_4661_2193" x1="29.4042" y1="10.9112" x2="28.2575" y2="5.00856" gradientUnits="userSpaceOnUse">
<stop stop-color="#FEA613" stop-opacity="0"/>
<stop offset="1" stop-color="#E94444"/>
</linearGradient>
<linearGradient id="paint8_linear_4661_2193" x1="22.8454" y1="8.93976" x2="26.1768" y2="13.6118" gradientUnits="userSpaceOnUse">
<stop stop-color="#FEE45A"/>
<stop offset="1" stop-color="#FEA613"/>
</linearGradient>
<linearGradient id="paint9_linear_4661_2193" x1="18.9885" y1="22.9156" x2="32.9179" y2="51.9038" gradientUnits="userSpaceOnUse">
<stop stop-color="#D9B1EE"/>
<stop offset="1" stop-color="#814AA0"/>
</linearGradient>
<linearGradient id="paint10_linear_4661_2193" x1="23.9995" y1="38.3077" x2="23.9995" y2="21.9862" gradientUnits="userSpaceOnUse">
<stop stop-color="#5B3374" stop-opacity="0"/>
<stop offset="1" stop-color="#5B3374"/>
</linearGradient>
<linearGradient id="paint11_linear_4661_2193" x1="34.6353" y1="33.3358" x2="27.9029" y2="33.3358" gradientUnits="userSpaceOnUse">
<stop stop-color="#5B3374" stop-opacity="0"/>
<stop offset="1" stop-color="#5B3374"/>
</linearGradient>
<linearGradient id="paint12_linear_4661_2193" x1="23.9995" y1="42.6038" x2="23.9995" y2="46.9959" gradientUnits="userSpaceOnUse">
<stop stop-color="#5B3374" stop-opacity="0"/>
<stop offset="1" stop-color="#5B3374"/>
</linearGradient>
<linearGradient id="paint13_linear_4661_2193" x1="19.3672" y1="33.5947" x2="28.6261" y2="33.5947" gradientUnits="userSpaceOnUse">
<stop stop-color="#FEE45A"/>
<stop offset="1" stop-color="#FEA613"/>
</linearGradient>
<linearGradient id="paint14_linear_4661_2193" x1="23.9966" y1="32.0646" x2="23.9966" y2="22.6853" gradientUnits="userSpaceOnUse">
<stop stop-color="#FEA613" stop-opacity="0"/>
<stop offset="1" stop-color="#E94444"/>
</linearGradient>
<linearGradient id="paint15_linear_4661_2193" x1="24" y1="13.5459" x2="24" y2="24.7534" gradientUnits="userSpaceOnUse">
<stop stop-color="#D9B1EE"/>
<stop offset="1" stop-color="#814AA0"/>
</linearGradient>
<linearGradient id="paint16_linear_4661_2193" x1="31.2862" y1="16.9157" x2="24.5098" y2="6.65686" gradientUnits="userSpaceOnUse">
<stop stop-color="#5B3374" stop-opacity="0"/>
<stop offset="1" stop-color="#5B3374"/>
</linearGradient>
<linearGradient id="paint17_linear_4661_2193" x1="34.6353" y1="18.5512" x2="27.9029" y2="18.5512" gradientUnits="userSpaceOnUse">
<stop stop-color="#5B3374" stop-opacity="0"/>
<stop offset="1" stop-color="#5B3374"/>
</linearGradient>
<linearGradient id="paint18_linear_4661_2193" x1="33.8651" y1="25.3742" x2="30.9475" y2="16.3389" gradientUnits="userSpaceOnUse">
<stop stop-color="#5B3374" stop-opacity="0"/>
<stop offset="1" stop-color="#5B3374"/>
</linearGradient>
<linearGradient id="paint19_linear_4661_2193" x1="21.6221" y1="16.8148" x2="27.2691" y2="20.956" gradientUnits="userSpaceOnUse">
<stop stop-color="#FEE45A"/>
<stop offset="1" stop-color="#FEA613"/>
</linearGradient>
<linearGradient id="paint20_linear_4661_2193" x1="26.003" y1="22.0881" x2="22.0501" y2="13.7116" gradientUnits="userSpaceOnUse">
<stop stop-color="#FEA613" stop-opacity="0"/>
<stop offset="1" stop-color="#E94444"/>
</linearGradient>
<linearGradient id="paint21_linear_4661_2193" x1="17.2373" y1="13.1542" x2="19.5921" y2="15.509" gradientUnits="userSpaceOnUse">
<stop stop-color="#FEE45A"/>
<stop offset="1" stop-color="#FEA613"/>
</linearGradient>
<linearGradient id="paint22_linear_4661_2193" x1="30.7502" y1="13.1542" x2="28.3954" y2="15.509" gradientUnits="userSpaceOnUse">
<stop stop-color="#FEE45A"/>
<stop offset="1" stop-color="#FEA613"/>
</linearGradient>
</defs>
</svg>
