<svg width="20" height="20" viewBox="0 0 20 20" fill="none" xmlns="http://www.w3.org/2000/svg">
<path d="M1.6665 6.66667C1.6665 6.66667 5.39746 2.5 9.99984 2.5C14.6022 2.5 18.3332 6.66667 18.3332 6.66667" stroke="#B1B1C3" stroke-width="1.25" stroke-linecap="round"/>
<path d="M17.9532 10.8695C18.2065 11.2248 18.3332 11.4024 18.3332 11.6654C18.3332 11.9283 18.2065 12.1059 17.9532 12.4612C16.8148 14.0575 13.9075 17.4987 9.99984 17.4987C6.09215 17.4987 3.18492 14.0575 2.04654 12.4612C1.79318 12.1059 1.6665 11.9283 1.6665 11.6654C1.6665 11.4024 1.79318 11.2248 2.04654 10.8695C3.18492 9.2732 6.09215 5.83203 9.99984 5.83203C13.9075 5.83203 16.8148 9.2732 17.9532 10.8695Z" stroke="#B1B1C3" stroke-width="1.25"/>
<path d="M12.5 11.668C12.5 10.2872 11.3807 9.16797 10 9.16797C8.61925 9.16797 7.5 10.2872 7.5 11.668C7.5 13.0487 8.61925 14.168 10 14.168C11.3807 14.168 12.5 13.0487 12.5 11.668Z" stroke="#B1B1C3" stroke-width="1.25"/>
</svg>
