<svg width="20" height="20" viewBox="0 0 20 20" fill="none" xmlns="http://www.w3.org/2000/svg">
<path d="M11.8089 17.4094C15.2947 17.1777 18.0714 14.3617 18.2999 10.8264C18.3445 10.1346 18.3445 9.41807 18.2999 8.72623C18.0714 5.19097 15.2947 2.37493 11.8089 2.14321C10.6196 2.06416 9.37802 2.06433 8.19118 2.14321C4.70534 2.37493 1.92869 5.19097 1.70022 8.72623C1.65551 9.41807 1.65551 10.1346 1.70022 10.8264C1.78343 12.114 2.35288 13.3062 3.02328 14.3128C3.41253 15.0176 3.15563 15.8972 2.75019 16.6655C2.45786 17.2195 2.31169 17.4965 2.42905 17.6966C2.54642 17.8967 2.80857 17.9031 3.33288 17.9158C4.36974 17.9411 5.06892 17.6471 5.62392 17.2378C5.93869 17.0057 6.09608 16.8897 6.20455 16.8763C6.31302 16.863 6.52649 16.9509 6.95336 17.1267C7.33702 17.2847 7.78248 17.3822 8.19118 17.4094C9.37802 17.4883 10.6196 17.4885 11.8089 17.4094Z" stroke="#373434" stroke-opacity="0.6" stroke-width="1.25" stroke-linejoin="round"/>
<path d="M9.99595 10H10.0034M13.3255 10H13.333M6.66638 10H6.67386" stroke="#373434" stroke-opacity="0.6" stroke-width="1.66667" stroke-linecap="round" stroke-linejoin="round"/>
</svg>
