<svg width="26" height="26" viewBox="0 0 26 26" fill="none" xmlns="http://www.w3.org/2000/svg">
<path d="M19.125 16.5C18.8929 16.5 18.6704 16.5922 18.5063 16.7563C18.3422 16.9204 18.25 17.1429 18.25 17.375V19.125C18.2475 19.7004 18.0561 20.259 17.7051 20.715C17.3542 21.1709 16.8631 21.4989 16.3075 21.6485C16.1127 21.1624 15.777 20.7458 15.3435 20.452C14.9101 20.1582 14.3986 20.0008 13.875 20H12.125C11.4288 20 10.7611 20.2766 10.2688 20.7688C9.77656 21.2611 9.5 21.9288 9.5 22.625C9.5 23.3212 9.77656 23.9889 10.2688 24.4812C10.7611 24.9734 11.4288 25.25 12.125 25.25H13.875C14.4292 25.2482 14.9686 25.0705 15.4154 24.7427C15.8623 24.4149 16.1936 23.9537 16.3617 23.4256C17.3776 23.2521 18.2995 22.7255 18.9651 21.9388C19.6307 21.152 19.9972 20.1555 20 19.125V17.375C20 17.1429 19.9078 16.9204 19.7437 16.7563C19.5796 16.5922 19.3571 16.5 19.125 16.5Z" fill="#9DFF00"/>
<path d="M20.875 8.625H20V7.75C20 5.89348 19.2625 4.11301 17.9497 2.80025C16.637 1.4875 14.8565 0.75 13 0.75C11.1435 0.75 9.36301 1.4875 8.05025 2.80025C6.7375 4.11301 6 5.89348 6 7.75V8.625H5.125C3.9651 8.62639 2.85311 9.08777 2.03294 9.90794C1.21277 10.7281 0.751389 11.8401 0.75 13V14.75C0.751389 15.9099 1.21277 17.0219 2.03294 17.8421C2.85311 18.6622 3.9651 19.1236 5.125 19.125H6.875C7.10706 19.125 7.32962 19.0328 7.49372 18.8687C7.65781 18.7046 7.75 18.4821 7.75 18.25V7.75C7.75 6.35761 8.30312 5.02226 9.28769 4.03769C10.2723 3.05312 11.6076 2.5 13 2.5C14.3924 2.5 15.7277 3.05312 16.7123 4.03769C17.6969 5.02226 18.25 6.35761 18.25 7.75V18.25C18.25 18.4821 18.3422 18.7046 18.5063 18.8687C18.6704 19.0328 18.8929 19.125 19.125 19.125H20.875C22.0349 19.1236 23.1469 18.6622 23.9671 17.8421C24.7872 17.0219 25.2486 15.9099 25.25 14.75V13C25.2486 11.8401 24.7872 10.7281 23.9671 9.90794C23.1469 9.08777 22.0349 8.62639 20.875 8.625Z" fill="#9DFF00"/>
</svg>
