<svg width="24" height="24" viewBox="0 0 24 24" fill="none" xmlns="http://www.w3.org/2000/svg">
<path d="M21.442 17.263L14.123 4.478C13.689 3.721 12.877 3.25 12.005 3.25C11.133 3.25 10.321 3.72 9.887 4.477L2.559 17.263C2.357 17.615 2.25 18.015 2.25 18.421C2.25 19.706 3.295 20.751 4.579 20.751H19.421C20.705 20.751 21.75 19.706 21.75 18.421C21.75 18.017 21.644 17.616 21.442 17.263Z" fill="#FBBC05"/>
<path d="M21.442 17.263L14.123 4.478C13.689 3.721 12.877 3.25 12.005 3.25C11.133 3.25 10.321 3.72 9.887 4.477L2.559 17.263C2.357 17.615 2.25 18.015 2.25 18.421C2.25 19.706 3.295 20.751 4.579 20.751H19.421C20.705 20.751 21.75 19.706 21.75 18.421C21.75 18.017 21.644 17.616 21.442 17.263ZM19.421 19.25H4.579C4.122 19.25 3.75 18.878 3.75 18.42C3.75 18.275 3.788 18.133 3.859 18.008L11.187 5.223C11.355 4.931 11.667 4.75 12.004 4.75C12.341 4.75 12.653 4.932 12.82 5.224L20.138 18.008C20.21 18.134 20.248 18.277 20.248 18.421C20.248 18.879 19.876 19.251 19.419 19.251L19.421 19.25Z" fill="#FBBC05"/>
<path d="M12 13.95C12.414 13.95 12.75 13.614 12.75 13.2V10C12.75 9.586 12.414 9.25 12 9.25C11.586 9.25 11.25 9.586 11.25 10V13.2C11.25 13.614 11.586 13.95 12 13.95Z" fill="#373434"/>
<path d="M12.0002 17.0004C12.442 17.0004 12.8002 16.6422 12.8002 16.2004C12.8002 15.7586 12.442 15.4004 12.0002 15.4004C11.5584 15.4004 11.2002 15.7586 11.2002 16.2004C11.2002 16.6422 11.5584 17.0004 12.0002 17.0004Z" fill="#373434"/>
</svg>
