<svg width="10" height="6" viewBox="0 0 10 6" fill="none" xmlns="http://www.w3.org/2000/svg">
<path fill-rule="evenodd" clip-rule="evenodd" d="M5.54558 5.36116C5.42056 5.48614 5.25102 5.55635 5.07424 5.55635C4.89747 5.55635 4.72793 5.48614 4.60291 5.36116L0.831577 1.58983C0.767904 1.52833 0.717116 1.45477 0.682176 1.37343C0.647237 1.29209 0.628846 1.20461 0.628077 1.11609C0.627308 1.02757 0.644176 0.939788 0.677696 0.857857C0.711217 0.775926 0.760719 0.701491 0.823314 0.638896C0.885909 0.576301 0.960344 0.526799 1.04227 0.493278C1.12421 0.459758 1.21199 0.44289 1.30051 0.443659C1.38903 0.444428 1.47651 0.462819 1.55785 0.497759C1.63918 0.532698 1.71275 0.583486 1.77424 0.647159L5.07424 3.94716L8.37424 0.647159C8.49998 0.525721 8.66838 0.458524 8.84318 0.460043C9.01798 0.461562 9.18518 0.531675 9.30879 0.65528C9.43239 0.778886 9.50251 0.946094 9.50403 1.12089C9.50555 1.29569 9.43835 1.46409 9.31691 1.58983L5.54558 5.36116Z" fill="#B1B1C3"/>
</svg>
