<svg width="17" height="16" viewBox="0 0 17 16" fill="none" xmlns="http://www.w3.org/2000/svg">
<path d="M10.9163 8.52101C10.815 8.63728 10.7658 8.79066 10.7786 8.94473L10.9655 11.0997L8.9732 10.2559C8.90258 10.2259 8.82626 10.2109 8.75136 10.2109C8.67575 10.2109 8.59943 10.2259 8.5288 10.2559L6.53651 11.0997L6.72339 8.94473C6.73623 8.79065 6.68701 8.63799 6.58572 8.52101L5.16763 6.8875L7.27479 6.39958C7.42458 6.36463 7.55513 6.26975 7.63431 6.13779L8.75067 4.28465L9.86631 6.13779C9.94549 6.27047 10.076 6.36463 10.2258 6.39958L12.333 6.8875L10.9149 8.52101H10.9163ZM13.5156 5.98874L10.7207 5.34175L9.24055 2.88362C9.0344 2.5398 8.46872 2.5398 8.26328 2.88362L6.78313 5.34175L3.98826 5.98874C3.79281 6.03439 3.63588 6.17849 3.57383 6.36894C3.51248 6.55869 3.55457 6.76769 3.68653 6.91891L5.56761 9.08596L5.31937 11.9442C5.30225 12.1439 5.38999 12.3379 5.55191 12.4556C5.71383 12.5733 5.92498 12.5976 6.10973 12.5198L8.75266 11.3999L11.3949 12.5198C11.4662 12.5498 11.5418 12.5648 11.6174 12.5648C11.7358 12.5648 11.8535 12.5277 11.9527 12.4556C12.1146 12.3379 12.2024 12.1439 12.1852 11.9442L11.9377 9.08595L13.818 6.91891C13.95 6.76768 13.9921 6.55867 13.9307 6.36894C13.8687 6.17847 13.7118 6.03439 13.5163 5.98874L13.5156 5.98874ZM14.6205 11.6554L14.0713 11.9421C13.512 12.2339 13.0676 12.6861 12.7858 13.2504L12.5091 13.8039C12.1025 14.6149 11.1809 15.0065 10.3163 14.7348L9.72492 14.5493C9.12287 14.3603 8.48945 14.3667 7.89096 14.565L7.30317 14.7605C6.4429 15.0472 5.51414 14.672 5.09467 13.8688L4.80791 13.3196C4.51616 12.7603 4.06463 12.3159 3.49967 12.0341L2.94614 11.7567C2.13437 11.3515 1.74348 10.4292 2.01453 9.56459L2.19999 8.97395C2.38974 8.3719 2.38402 7.73705 2.18429 7.13998L1.98813 6.5522C1.70138 5.69193 2.07659 4.76317 2.8805 4.34369L3.42976 4.05694C3.989 3.76518 4.43341 3.31295 4.71518 2.74869L4.99265 2.19516C5.31151 1.55674 5.94994 1.17796 6.62973 1.17796C6.81376 1.17796 6.99993 1.20578 7.1847 1.26428L7.77676 1.44974C8.37881 1.63949 9.01224 1.63306 9.61 1.43404L10.1978 1.2386C11.0573 0.951841 11.9854 1.32705 12.4063 2.13025L12.693 2.67951C12.9848 3.23875 13.4363 3.68245 14.0013 3.96493L14.5548 4.24169C15.3666 4.64687 15.7575 5.5699 15.4864 6.43449L15.301 7.02513C15.1112 7.62718 15.1169 8.26131 15.3167 8.85909L15.5128 9.44688C15.7996 10.3071 15.4244 11.2359 14.6205 11.6554ZM16.5964 9.08601L16.4002 8.49751C16.2768 8.12873 16.2732 7.73781 16.3902 7.36689L16.5757 6.77554C17.0165 5.37314 16.3817 3.87805 15.0663 3.22028L14.512 2.94423C14.1654 2.76946 13.8857 2.49555 13.706 2.151L13.4192 1.60174C12.7387 0.298501 11.2321 -0.308553 9.83765 0.155115L9.2513 0.351276C8.8811 0.473967 8.49018 0.477535 8.11997 0.361262L7.52862 0.17509C6.12337 -0.265752 4.63113 0.369827 3.97336 1.68448L3.69589 2.23874C3.52184 2.58613 3.24863 2.86505 2.90339 3.04481L2.35484 3.33156C1.05089 4.01208 0.442355 5.5187 0.906791 6.91312L1.10295 7.50091C1.22636 7.86969 1.22992 8.26061 1.11294 8.63224L0.927478 9.22288C0.486636 10.6253 1.1215 12.1211 2.43687 12.7781L2.99113 13.0549C3.3378 13.229 3.61743 13.5036 3.7972 13.8481L4.08395 14.3974C4.61109 15.4067 5.63401 15.9995 6.71538 15.9995C7.03068 15.9995 7.35024 15.9496 7.66552 15.8447L8.25258 15.6486C8.62208 15.5259 9.01299 15.523 9.38391 15.6386L9.97526 15.824C11.3805 16.2649 12.8728 15.63 13.5313 14.3153L13.808 13.7611C13.9821 13.4137 14.2553 13.1348 14.6005 12.955L15.1498 12.6683C16.453 11.9877 17.0615 10.4811 16.5971 9.08671L16.5964 9.08601Z" fill="#373434"/>
</svg>
