<svg width="18" height="16" viewBox="0 0 18 16" fill="none" xmlns="http://www.w3.org/2000/svg">
<path d="M5.875 15.5C6.56536 15.5 7.125 14.9404 7.125 14.25C7.125 13.5596 6.56536 13 5.875 13C5.18464 13 4.625 13.5596 4.625 14.25C4.625 14.9404 5.18464 15.5 5.875 15.5Z" fill="#343735"/>
<path d="M14.625 15.5C15.3154 15.5 15.875 14.9404 15.875 14.25C15.875 13.5596 15.3154 13 14.625 13C13.9346 13 13.375 13.5596 13.375 14.25C13.375 14.9404 13.9346 15.5 14.625 15.5Z" fill="#343735"/>
<path d="M16.8438 2.71797C16.7559 2.61057 16.6453 2.52406 16.5199 2.46474C16.3945 2.40542 16.2575 2.37476 16.1187 2.375H4.23008L3.99063 1.01641C3.96509 0.871691 3.88938 0.7406 3.7768 0.646159C3.66421 0.551719 3.52195 0.499969 3.375 0.5H0.875C0.70924 0.5 0.550268 0.565848 0.433058 0.683058C0.315848 0.800269 0.25 0.95924 0.25 1.125C0.25 1.29076 0.315848 1.44973 0.433058 1.56694C0.550268 1.68415 0.70924 1.75 0.875 1.75H2.85078L4.63438 11.8586C4.65991 12.0033 4.73562 12.1344 4.8482 12.2288C4.96079 12.3233 5.10305 12.375 5.25 12.375H15.25C15.4158 12.375 15.5747 12.3092 15.6919 12.1919C15.8092 12.0747 15.875 11.9158 15.875 11.75C15.875 11.5842 15.8092 11.4253 15.6919 11.3081C15.5747 11.1908 15.4158 11.125 15.25 11.125H5.77422L5.55391 9.875H14.9937C15.2105 9.87472 15.4205 9.79957 15.5882 9.66226C15.7559 9.52495 15.871 9.33391 15.9141 9.12148L17.0391 3.49648C17.0662 3.36035 17.0627 3.2199 17.0289 3.08527C16.9952 2.95064 16.9319 2.82518 16.8438 2.71797Z" fill="#343735"/>
</svg>
