<svg width="16" height="19" viewBox="0 0 16 19" fill="none" xmlns="http://www.w3.org/2000/svg">
<path fill-rule="evenodd" clip-rule="evenodd" d="M5.6227 1.44804C6.03945 0.730202 6.8164 0.25 7.70414 0.25C8.59285 0.25 9.37053 0.731246 9.78695 1.45038C11.9289 2.28841 13.4549 4.37782 13.4549 6.80859V9.21693C13.4549 9.38096 13.4927 9.63128 13.5677 9.90502C13.6417 10.1746 13.7359 10.4093 13.8181 10.5535L14.7724 12.1384L14.773 12.1394C15.5685 13.4653 14.933 15.1931 13.4664 15.6787C12.58 15.9748 11.677 16.2008 10.7652 16.3567C10.3152 17.613 9.11118 18.5166 7.70398 18.5166C6.81317 18.5166 5.99146 18.1481 5.40698 17.5636C5.07238 17.229 4.80855 16.8166 4.64412 16.3581C3.7293 16.202 2.82324 15.9754 1.93385 15.6783L1.93107 15.6773C1.197 15.4289 0.639822 14.9123 0.390062 14.2378C0.139974 13.5624 0.227009 12.8065 0.62888 12.1386L0.628993 12.1384L1.58564 10.5495L1.58634 10.5484C1.67005 10.4076 1.76627 10.174 1.84155 9.90278C1.91711 9.63059 1.95485 9.38073 1.95485 9.21693V6.80859C1.95485 4.37015 3.4775 2.28326 5.6227 1.44804ZM6.43123 2.75336C4.70772 3.29553 3.45485 4.90802 3.45485 6.80859V9.21693C3.45485 9.56146 3.38426 9.95327 3.2869 10.304C3.18948 10.655 3.04852 11.025 2.87406 11.3176L2.87238 11.3205L2.87238 11.3205L1.91416 12.9119C1.72436 13.2274 1.71973 13.509 1.79673 13.7169C1.87395 13.9255 2.06223 14.1378 2.41065 14.2561C5.84765 15.404 9.55526 15.4039 12.9922 14.2556L12.9944 14.2548C13.5435 14.0733 13.7908 13.4187 13.487 12.9117L13.4867 12.9111L12.529 11.3205L12.5218 11.3085L12.5219 11.3084C12.3548 11.0188 12.2171 10.6517 12.1211 10.3017C12.0254 9.95258 11.9549 9.56123 11.9549 9.21693V6.80859C11.9549 4.90321 10.6811 3.27835 8.94377 2.74424C8.74876 2.69165 8.55295 2.65181 8.35556 2.62788L8.35279 2.62754C7.67106 2.54233 7.02772 2.58872 6.43123 2.75336ZM6.55049 16.5805C6.85872 16.8506 7.26841 17.0166 7.70398 17.0166C8.14354 17.0166 8.54719 16.8514 8.85579 16.5802C8.08812 16.6291 7.31817 16.6292 6.55049 16.5805Z" fill="#3A3A3A"/>
</svg>
