<svg width="20" height="24" viewBox="0 0 20 24" fill="none" xmlns="http://www.w3.org/2000/svg">
<path fill-rule="evenodd" clip-rule="evenodd" d="M5.1042 0.720759C5.30692 0.282297 5.75865 0 6.25919 0H16.2412C17.1797 0 17.7916 0.949 17.3712 1.75625L14.5318 7.20759H18.7339C19.8601 7.20759 20.4232 8.51457 19.6273 9.27857L4.66998 23.6373C3.72646 24.5431 2.15477 23.6109 2.57773 22.3964L5.76616 13.2139H1.26381C1.05327 13.2139 0.846059 13.1634 0.661009 13.067C0.475959 12.9706 0.31893 12.8313 0.204185 12.6619C0.0894404 12.4924 0.0206148 12.2981 0.00396047 12.0966C-0.0126939 11.8951 0.0233505 11.6928 0.10882 11.5081L5.1042 0.720759Z" fill="#FAA138"/>
</svg>
